<svg width="80" height="80" viewBox="0 0 80 80" fill="none" xmlns="http://www.w3.org/2000/svg">
<g opacity="0.1">
<path d="M60.8032 8.80078H19.2032C18.2441 8.82712 17.3047 9.07878 16.4609 9.53542C15.6171 9.99206 14.8926 10.6409 14.346 11.4294L3.94604 25.8294C3.17379 26.9206 2.78812 28.2386 2.85023 29.574C2.91235 30.9094 3.41868 32.1859 4.28889 33.2008L35.4889 69.1436C36.023 69.8319 36.7075 70.3889 37.4899 70.7721C38.2723 71.1552 39.132 71.3545 40.0032 71.3545C40.8744 71.3545 41.7341 71.1552 42.5165 70.7721C43.2989 70.3889 43.9833 69.8319 44.5175 69.1436L75.7175 33.2008C76.5877 32.1859 77.094 30.9094 77.1561 29.574C77.2182 28.2386 76.8326 26.9206 76.0603 25.8294L65.6603 11.4294C65.1137 10.6409 64.3892 9.99206 63.5454 9.53542C62.7016 9.07878 61.7622 8.82712 60.8032 8.80078Z" stroke="white" stroke-width="1.5" stroke-linecap="round" stroke-linejoin="round"/>
<path d="M37.0288 8.74219L23.0859 30.3422L40.0002 71.1993" stroke="white" stroke-width="1.5" stroke-linecap="round" stroke-linejoin="round"/>
<path d="M43.1429 8.74219L57.0286 30.3422L40 71.1993" stroke="white" stroke-width="1.5" stroke-linecap="round" stroke-linejoin="round"/>
<path d="M2.97656 30.3398H77.0337" stroke="white" stroke-width="1.5" stroke-linecap="round" stroke-linejoin="round"/>
</g>
</svg>
