<svg width="50" height="50" viewBox="0 0 50 50" fill="none" xmlns="http://www.w3.org/2000/svg">
<g clip-path="url(#clip0_22_205)">
<path d="M5.35756 21.4297H8.92899C9.40259 21.4297 9.85679 21.6178 10.1917 21.9527C10.5266 22.2876 10.7147 22.7418 10.7147 23.2154V32.144C10.7147 32.6176 10.5266 33.0718 10.1917 33.4067C9.85679 33.7416 9.40259 33.9297 8.92899 33.9297H5.35756C4.41036 33.9297 3.50195 33.5534 2.83218 32.8836C2.16241 32.2139 1.78613 31.3055 1.78613 30.3583V25.0011C1.78613 24.0539 2.16241 23.1455 2.83218 22.4757C3.50195 21.806 4.41036 21.4297 5.35756 21.4297V21.4297Z" stroke="white" stroke-width="2" stroke-linecap="round" stroke-linejoin="round"/>
<path d="M44.6434 33.9297H41.072C40.5984 33.9297 40.1442 33.7415 39.8093 33.4067C39.4744 33.0718 39.2863 32.6176 39.2863 32.144V23.2154C39.2863 22.7418 39.4744 22.2876 39.8093 21.9527C40.1442 21.6178 40.5984 21.4297 41.072 21.4297H44.6434C45.5906 21.4297 46.499 21.806 47.1688 22.4757C47.8386 23.1455 48.2148 24.0539 48.2148 25.0011V30.3583C48.2148 31.3055 47.8386 32.2139 47.1688 32.8836C46.499 33.5534 45.5906 33.9297 44.6434 33.9297V33.9297Z" stroke="white" stroke-width="2" stroke-linecap="round" stroke-linejoin="round"/>
<path d="M33.9287 43.7511C35.8231 43.7511 37.6399 42.9986 38.9795 41.659C40.319 40.3195 41.0716 38.5027 41.0716 36.6083V33.9297" stroke="white" stroke-width="2" stroke-linecap="round" stroke-linejoin="round"/>
<path d="M29.465 39.2891C30.649 39.2891 31.7845 39.7594 32.6217 40.5966C33.4589 41.4338 33.9293 42.5693 33.9293 43.7533C33.9293 44.9374 33.4589 46.0729 32.6217 46.9101C31.7845 47.7473 30.649 48.2176 29.465 48.2176H24.1078C22.9238 48.2176 21.7883 47.7473 20.9511 46.9101C20.1139 46.0729 19.6436 44.9374 19.6436 43.7533C19.6436 42.5693 20.1139 41.4338 20.9511 40.5966C21.7883 39.7594 22.9238 39.2891 24.1078 39.2891H29.465Z" stroke="white" stroke-width="2" stroke-linecap="round" stroke-linejoin="round"/>
<path d="M8.92871 21.4319V17.8605C8.92871 13.5981 10.6219 9.51025 13.6359 6.49627C16.6499 3.4823 20.7377 1.78906 25.0001 1.78906C29.2625 1.78906 33.3504 3.4823 36.3644 6.49627C39.3783 9.51025 41.0716 13.5981 41.0716 17.8605V21.4319" stroke="white" stroke-width="2" stroke-linecap="round" stroke-linejoin="round"/>
<path d="M19.6436 14.2891V19.6462" stroke="white" stroke-width="2" stroke-linecap="round" stroke-linejoin="round"/>
<path d="M30.3574 14.2891V19.6462" stroke="white" stroke-width="2" stroke-linecap="round" stroke-linejoin="round"/>
<path d="M19.6436 26.7891C19.6436 31.5391 30.3578 31.5391 30.3578 26.7891" stroke="white" stroke-width="2" stroke-linecap="round" stroke-linejoin="round"/>
</g>
<defs>
<clipPath id="clip0_22_205">
<rect width="50" height="50" fill="white"/>
</clipPath>
</defs>
</svg>
