<svg version="1.2" xmlns="http://www.w3.org/2000/svg" viewBox="0 0 30 30" width="30" height="30"><defs><clipPath clipPathUnits="userSpaceOnUse" id="cp1"><path d="m28.18 24.73c0 3.48-6.85 5.27-13.18 5.27-3.39 0-6.58-0.48-9-1.34-3.46-1.23-4.19-2.82-4.19-3.93 0-3.06 5.15-4.44 8.18-4.91l-2.83-4.44c-1.2-1.66-1.83-3.64-1.83-5.65 0-5.35 4.34-9.73 9.67-9.73 5.34 0 9.66 4.39 9.66 9.73 0 2.01-0.61 3.94-1.77 5.58-0.09 0.13 0.31-0.5-2.89 4.51 3.04 0.47 8.18 1.85 8.18 4.91zm-13.18-0.32c6.82-10.71 6.38-10.02 6.46-10.13 0.95-1.34 1.45-2.91 1.45-4.55 0-4.4-3.55-7.97-7.91-7.97-4.37 0-7.91 3.57-7.91 7.97 0 1.63 0.5 3.26 1.5 4.64q0.02 0.02 0.03 0.04zm11.43 0.32c0-1-2.32-2.64-7.46-3.28l-3.22 5.07c-0.17 0.25-0.45 0.41-0.75 0.41-0.3 0-0.58-0.16-0.74-0.41l-3.23-5.07c-5.13 0.64-7.45 2.28-7.45 3.28 0 1.48 4.51 3.51 11.42 3.51 6.96 0 11.43-2.04 11.43-3.51z"/></clipPath><clipPath clipPathUnits="userSpaceOnUse" id="cp2"><path d="m19.4 9.72c0 2.43-1.97 4.4-4.4 4.4-2.42 0-4.39-1.97-4.39-4.4 0-2.42 1.97-4.39 4.39-4.39 2.43 0 4.4 1.97 4.4 4.39zm-1.76 0c0-1.45-1.18-2.63-2.64-2.63-1.45 0-2.63 1.18-2.63 2.63 0 1.46 1.18 2.64 2.63 2.64 1.46 0 2.64-1.18 2.64-2.64z"/></clipPath></defs><style>.a{fill:#caa501}</style><g clip-path="url(#cp1)"><path class="a" d="m21.5 14.3l-1.6-1.2q0-0.1 0-0.1 0 0.1-0.1 0.1 0 0.1-0.1 0.2c-0.1 0.1-0.3 0.4-0.6 1-0.8 1.2-2.4 3.7-5.8 9l1.7 1.1 1.7 1.1c3.4-5.4 5-7.9 5.7-9.1 0.4-0.5 0.6-0.8 0.7-0.9 0-0.1 0-0.1 0 0q-0.1 0-0.1 0.1 0 0 0-0.1 0 0 0.1 0zm-1.5 5.5l1.7 1.1c3.2-5.1 2.8-4.4 2.8-4.4l-1.6-1.2-1.7-1.1q0.1-0.1 0.1-0.1-0.1 0.1-0.1 0.2c-0.1 0-0.1 0.1-0.3 0.4-0.3 0.5-1 1.6-2.6 4.1zm-11.4-5.5l1.7-1q0-0.1-0.1-0.2l-1.6 1.2-1.6 1.2q0-0.1-0.1-0.1zm6.4 10l1.7-1.1-6.4-10-1.7 1.1-1.6 1.1 6.3 10zm-13.2 0.3h-2c0 1 0.4 2.2 1.3 3.3 1 1 2.3 1.8 4.3 2.5l0.6-1.9 0.7-1.8c-1.5-0.6-2.2-1.1-2.6-1.5-0.2-0.3-0.3-0.5-0.3-0.6zm6.9-10.3l1.6-1.1zm0 0l1.6-1.2zm14.3 0.9l1.7 1.2c1.4-2 2.1-4.3 2.1-6.7h-2-2c0 1.6-0.5 3.1-1.4 4.4zm-7.9 9.1l-1.7 1.1 1.7 2.6 1.7-2.6zm-5-4.6l0.3 1.9 3-0.4-1.6-2.6zm4.2 6.7l-1.7 1.1c0.6 0.8 1.5 1.3 2.5 1.3v-2-2c0.4 0 0.7 0.2 0.9 0.5zm-3.2-5l-1.7 1 3.2 5.1 1.7-1.1 1.7-1.1-3.2-5zm9-1.7l-1.7-1-1.7 2.6 3.1 0.4zm2.9-10.1h-2c0 1.3-0.4 2.4-1.1 3.4l1.6 1.2 1.6 1.1c1.2-1.6 1.9-3.6 1.9-5.7zm-1.5 4.6l1.6 1.2v-0.1zm3.2-4.5h2c0-6.4-5.2-11.7-11.6-11.7v2 2c4.2 0 7.6 3.4 7.6 7.7zm-9.6-9.7v-2c-6.5 0-11.7 5.2-11.7 11.7h2 2c0-4.3 3.5-7.7 7.7-7.7zm-9.7 9.7h-2c0 2.4 0.8 4.8 2.2 6.8l1.6-1.2 1.7-1.1c-1-1.4-1.5-2.9-1.5-4.5zm1.8 5.6l-1.6 1.1 2.8 4.5 1.7-1.1 1.7-1.1-2.9-4.4zm2.9 4.4l-0.3-2c-1.6 0.3-3.9 0.8-5.8 1.7-1.8 0.8-4.1 2.4-4.1 5.2h2 2c0-0.2 0.2-0.9 1.8-1.6 1.4-0.7 3.2-1.1 4.7-1.3zm-4 8.8l-0.7 1.9zm0 0l-0.7 1.9c2.7 0.9 6.2 1.4 9.7 1.4v-2-2c-3.2 0-6.2-0.4-8.3-1.2zm9 1.4v2c3.3 0 6.8-0.5 9.6-1.5 1.4-0.5 2.7-1.1 3.7-2 1-0.9 1.9-2.2 1.9-3.8h-2-2c0 0.1-0.1 0.4-0.5 0.8-0.5 0.4-1.3 0.8-2.4 1.2-2.3 0.8-5.3 1.3-8.3 1.3zm13.2-5.3h2c0-2.8-2.4-4.4-4.1-5.2-2-1-4.2-1.5-5.8-1.7l-0.3 2-0.3 2c1.4 0.2 3.2 0.6 4.6 1.3 1.6 0.7 1.9 1.3 1.9 1.6zm-19.6-10.4l1.6-1.2c-0.8-1-1.1-2.2-1.1-3.4h-2-2c0 2 0.6 4.1 1.8 5.8zm-1.4 1l1.7-1.1-0.1-0.1zm0-5.6h2c0-3.3 2.6-6 5.9-6v-2-2c-5.5 0-9.9 4.5-9.9 10zm7.9-8v2c3.2 0 5.9 2.7 5.9 6h2 2c0-5.5-4.4-10-9.9-10zm7.9 13.6l-1.7-1.2zm-3.9 6.2l0.3-2-1.3-0.2-0.7 1.1zm-7.9 0l1.7-1.1-0.7-1.1-1.3 0.2zm4 6.8v-2c-3.3 0-5.9-0.5-7.6-1.1-0.9-0.3-1.5-0.6-1.8-0.8-0.4-0.4 0-0.2 0 0.4h-2-2c0 1.3 0.9 2.3 1.6 2.8 0.7 0.5 1.7 1 2.8 1.4 2.3 0.8 5.4 1.3 9 1.3zm-11.4-3.5h2c0 0.5-0.3 0.7-0.2 0.5 0.1-0.1 0.4-0.3 0.9-0.5 0.9-0.5 2.6-1 5-1.3l-0.3-2-0.2-2c-2.7 0.4-4.8 1-6.3 1.7-0.8 0.4-1.4 0.8-1.9 1.3-0.5 0.5-1 1.3-1 2.3zm11.4 2.2v2c1 0 1.9-0.5 2.4-1.4l-1.7-1-1.6-1.1c0.2-0.3 0.5-0.5 0.9-0.5zm0.7-0.4l1.7 1 3.3-5-1.7-1.1-1.7-1.1-3.2 5.1zm0 0l-1.7-1.1zm-1.5 0l1.7-1.1zm4.7-5l-0.3 2c2.5 0.3 4.1 0.8 5 1.3 0.5 0.2 0.8 0.4 0.9 0.5 0.1 0.1-0.2 0-0.2-0.5h2 2c0-1.1-0.5-1.8-1-2.3-0.5-0.5-1.1-0.9-1.9-1.3-1.4-0.8-3.5-1.4-6.3-1.7zm7.5 3.3h-2c0-0.7 0.4-0.8 0-0.5-0.3 0.3-0.9 0.6-1.8 0.9-1.7 0.6-4.3 1.1-7.6 1.1v2 2c3.6 0 6.7-0.6 8.9-1.3 1.2-0.4 2.1-0.9 2.9-1.5 0.6-0.4 1.6-1.4 1.6-2.7z"/></g><g clip-path="url(#cp2)"><path class="a" d="m15 5.3v-2c-3.5 0-6.4 2.9-6.4 6.4h2 2c0-1.3 1.1-2.4 2.4-2.4zm-4.4 4.4h-2c0 3.6 2.9 6.4 6.4 6.4v-2-2c-1.3 0-2.4-1.1-2.4-2.4zm4.4 4.4v2c3.5 0 6.4-2.8 6.4-6.4h-2-2c0 1.3-1.1 2.4-2.4 2.4zm4.4-4.4h2c0-3.5-2.9-6.4-6.4-6.4v2 2c1.3 0 2.4 1.1 2.4 2.4zm-4.4 2.7v-2c-0.3 0-0.6-0.3-0.6-0.7h-2-2c0 2.6 2 4.7 4.6 4.7zm-2.6-2.7h2c0-0.3 0.3-0.6 0.6-0.6v-2-2c-2.6 0-4.6 2.1-4.6 4.6zm2.6-2.6v2c0.4 0 0.6 0.3 0.6 0.6h2 2c0-2.5-2-4.6-4.6-4.6zm2.6 2.6h-2c0 0.4-0.2 0.7-0.6 0.7v2 2c2.6 0 4.6-2.1 4.6-4.7z"/></g></svg>