<svg version="1.2" xmlns="http://www.w3.org/2000/svg" viewBox="0 0 30 30" width="30" height="30"><defs><clipPath clipPathUnits="userSpaceOnUse" id="cp1"><path d="m30 7.09v15.82c0 1.46-1.19 2.64-2.64 2.64h-24.72c-1.45 0-2.64-1.18-2.64-2.64v-15.82c0-1.45 1.18-2.64 2.64-2.64h24.72c1.46 0 2.64 1.19 2.64 2.64zm-26.99-0.88c0.74 0.74 9.91 9.86 10.12 10.08 0.5 0.5 1.17 0.77 1.87 0.77 0.7 0 1.37-0.27 1.86-0.77 0.32-0.32 9.6-9.54 10.13-10.08zm6.35 8.79l-7.59-7.55v15.1zm17.63 8.79l-7.59-7.55-1.29 1.29c-0.83 0.83-1.93 1.28-3.11 1.28-1.17 0-2.28-0.45-3.11-1.28l-1.29-1.29-7.59 7.55zm1.25-16.34l-7.6 7.55 7.6 7.55z"/></clipPath></defs><style>.a{fill:#caa501}</style><g clip-path="url(#cp1)"><path class="a" d="m27 6.2l1.4 1.4 3.4-3.4h-4.8zm-10.1 10.1l-1.4-1.4zm-3.8 0l1.4-1.4zm-10.1-10.1v-2h-4.8l3.4 3.4zm-1.3 16.3h-2v4.8l3.5-3.3zm0-15.1l1.4-1.5-3.4-3.4v4.9zm11.3 8.8l1.4-1.4c-0.2-0.2-9.3-9.4-10.1-10.1l-1.4 1.4-1.4 1.4c0.7 0.8 9.9 9.9 10.1 10.1zm-10.1 7.5l-1.4-1.4-3.5 3.4h4.9zm7.6-7.5l1.4-1.5-1.4-1.4-1.4 1.4zm4.4 0.9v-2q-0.3 0-0.5-0.2l-1.4 1.4-1.4 1.4c0.9 0.9 2 1.4 3.3 1.4zm12-10.9l-1.4-1.4c-0.6 0.5-9.9 9.8-10.2 10.1l1.4 1.4 1.5 1.4c0.3-0.3 9.5-9.5 10.1-10.1zm-7.6 10.1l1.4-1.5-1.4-1.4-1.4 1.4zm7.6 7.6v2h4.8l-3.4-3.4zm1.2-1.3l-1.4 1.5 3.4 3.3v-4.8zm-7.6-7.5l-1.4-1.4-1.4 1.4 1.4 1.4zm7.6-7.5h2v-4.9l-3.4 3.4zm-0.9-3v-2h-24.7v2 2h24.7zm-24.7 0v-2c-2.6 0-4.6 2.1-4.6 4.7h2 2c0-0.4 0.3-0.7 0.6-0.7zm-2.6 2.7h-2v15.8h2 2v-15.8zm0 15.8h-2c0 2.6 2.1 4.6 4.6 4.6v-2-2c-0.3 0-0.6-0.3-0.6-0.6zm2.6 2.6v2h24.7v-2-2h-24.7zm24.7 0v2c2.6 0 4.7-2 4.7-4.6h-2-2c0 0.3-0.3 0.6-0.7 0.6zm2.7-2.6h2v-15.8h-2-2v15.8zm0-15.8h2c0-2.6-2.1-4.7-4.7-4.7v2 2c0.4 0 0.7 0.3 0.7 0.7zm-13.2 9.2l-1.4-1.4q-0.2 0.1-0.4 0.1v2 2c1.2 0 2.4-0.4 3.2-1.3zm1.3 1.2l-1.4-1.4zm-6.2 0l1.4-1.4zm-2.6-2.5l1.4 1.4 1.5-1.4-1.5-1.4zm-6.3-8.8v2h24v-2-2h-24zm-1.3 16.3h2v-15.1h-2-2v15.1zm0-15.1l-1.4 1.4 7.6 7.6 1.4-1.4 1.4-1.5-7.5-7.5zm7.5 7.5l-1.4-1.4-7.6 7.6 1.5 1.4 1.4 1.4 7.6-7.5zm-6.4 8.7l1.4 1.5 7.6-7.6-1.4-1.4-1.4-1.4-7.6 7.5zm7.6-7.5l-1.4 1.4 1.3 1.3 1.4-1.4 1.4-1.5-1.3-1.2zm1.3 1.2l-1.4 1.5c1.2 1.2 2.8 1.8 4.5 1.8v-2-2c-0.6 0-1.2-0.2-1.7-0.7zm3.1 1.3v2c1.7 0 3.3-0.7 4.5-1.9l-1.4-1.4-1.4-1.4c-0.4 0.5-1 0.7-1.7 0.7zm3.1-1.3l1.4 1.4 1.3-1.2-1.4-1.5-1.4-1.4-1.3 1.3zm1.3-1.3l-1.4 1.4 7.6 7.6 1.4-1.4 1.4-1.4-7.6-7.6zm7.6 7.6v-2h-24v2 2h24zm1.3-1.3l1.4-1.4-7.6-7.6-1.4 1.5-1.4 1.4 7.6 7.5zm-7.6-7.5l1.4 1.4 7.6-7.6-1.4-1.4-1.5-1.4-7.6 7.6zm7.6-7.6h-2v15.1h2 2v-15.1z"/></g></svg>