<svg version="1.2" xmlns="http://www.w3.org/2000/svg" viewBox="0 0 50 50" width="50" height="50"><defs><clipPath clipPathUnits="userSpaceOnUse" id="cp1"><path d="m0 0h50v50h-50z"/></clipPath></defs><style>.a{fill:none;stroke:#a93e17;stroke-linecap:round;stroke-linejoin:round;stroke-width:2}</style><g clip-path="url(#cp1)"><filter id="f0"><feFlood flood-color="#caa501" flood-opacity="1" /><feBlend mode="normal" in2="SourceGraphic"/><feComposite in2="SourceAlpha" operator="in" /></filter><g filter="url(#f0)"><path class="a" d="m26.7 24.6q-0.8 0.4-1.7 0.4-0.9 0-1.7-0.4l-20.3-9.4q-0.5-0.2-0.8-0.7-0.3-0.5-0.3-1.1 0-0.5 0.3-1 0.3-0.5 0.8-0.8l20.3-9.5q0.8-0.3 1.7-0.3 0.9 0 1.7 0.3l20.3 9.5q0.5 0.2 0.8 0.7 0.3 0.5 0.3 1.1 0 0.5-0.3 1-0.3 0.5-0.8 0.7z"/><path class="a" d="m48.2 26.3l-21.8 10q-0.7 0.3-1.5 0.3-0.7 0-1.4-0.3l-21.7-10.1"/><path class="a" d="m48.2 37.9l-21.8 10q-0.7 0.3-1.5 0.3-0.7 0-1.4-0.3l-21.7-10"/></g></g></svg>