<svg version="1.2" xmlns="http://www.w3.org/2000/svg" viewBox="0 0 31 30" width="31" height="30"><style>.a{fill:#caa501}</style><path class="a" d="m5.7 1.7c0.8 0 1.6 0.4 2.2 1q0.6 0.5 1.2 1.1 0.3 0.3 0.6 0.6l1.7 1.8c1.3 1.3 1.3 3 0 4.4q-0.3 0.2-0.5 0.5-0.7 0.7-1.5 1.4c0.4 0.9 0.9 1.7 1.7 2.7 1.6 2 3.3 3.6 5.2 4.8q0.3 0.2 0.6 0.3 0.3 0.1 0.5 0.3l2-2c0.7-0.7 1.4-1 2.2-1 0.8 0 1.5 0.3 2.1 1l3.5 3.5c0.7 0.6 1 1.4 1 2.1 0 0.8-0.3 1.6-1 2.2q-0.4 0.5-0.8 0.9c-0.4 0.3-0.8 0.7-1.1 1.1q0 0 0 0-1.5 1.6-3.7 1.6-0.2 0-0.4 0c-2.1-0.2-4.1-1-5.6-1.7-3.8-1.8-7.1-4.4-9.9-7.7-2.3-2.8-3.8-5.3-4.8-8.1-0.5-1.1-1-2.9-0.9-4.7q0.2-1.7 1.4-3l2.2-2.1c0.6-0.6 1.4-1 2.1-1zm0.1 1.7q-0.5 0.1-1 0.5l-2.2 2.2q-0.8 0.7-0.8 1.8c-0.1 1.2 0.1 2.4 0.7 4 0.9 2.6 2.4 5 4.5 7.6 2.7 3.1 5.8 5.6 9.4 7.3 1.3 0.6 3.1 1.4 4.9 1.5q0.2 0 0.3 0c1 0 1.8-0.3 2.4-1q0.6-0.7 1.2-1.3 0.4-0.4 0.8-0.8 1-1 0-1.9l-3.5-3.5c-0.2-0.2-0.5-0.5-0.9-0.5-0.4 0-0.8 0.3-1 0.5l-2.1 2.1c-0.1 0.2-0.5 0.5-1 0.5q-0.3 0-0.6-0.2-0.1 0-0.1 0-0.3-0.2-0.6-0.4-0.4-0.1-0.8-0.4c-2-1.3-3.9-2.9-5.6-5.1h-0.1c-0.9-1.2-1.5-2.3-2-3.3q0-0.1 0-0.1c-0.1-0.4-0.2-0.9 0.3-1.4q0 0 0-0.1c0.6-0.5 1.1-1 1.6-1.5q0.3-0.3 0.6-0.6c0.7-0.6 0.7-1.2 0-1.9l-1.8-1.7q-0.3-0.4-0.6-0.7-0.5-0.6-1.1-1.1c-0.2-0.2-0.5-0.5-0.9-0.5z"/><path class="a" d="m15.5 6.1c0.1-0.4 0.6-0.7 1-0.7 2 0.4 3.9 1.3 5.3 2.8 1.5 1.4 2.4 3.3 2.8 5.3 0.1 0.4-0.3 0.9-0.7 1h-0.2-0.1c-0.4-0.1-0.7-0.4-0.7-0.7-0.3-1.7-1.1-3.2-2.3-4.4-1.2-1.2-2.7-2-4.4-2.3-0.4 0-0.7-0.5-0.7-1z"/><path class="a" d="m15.8 0.7c0.1-0.5 0.5-0.8 1-0.7 3.3 0.6 6.3 2.1 8.7 4.5 2.4 2.4 3.9 5.4 4.5 8.7 0.1 0.5-0.2 0.9-0.7 1h-0.1-0.2c-0.3-0.1-0.6-0.3-0.7-0.7-0.5-2.9-1.9-5.6-4-7.8-2-2-4.5-3.3-7.3-3.9l-0.5-0.1c-0.5-0.1-0.8-0.5-0.7-0.9z"/></svg>