<svg version="1.2" xmlns="http://www.w3.org/2000/svg" viewBox="0 0 60 60" width="60" height="60"><style>.a{fill:#caa501;stroke:#a93e17;stroke-linecap:round;stroke-linejoin:round;stroke-width:2}</style><path class="a" d="m30 42.9v4.4"/><path class="a" d="m30 21.5v4"/><path class="a" d="m30 57.8c15 0 25.7-5.3 25.7-17.1 0-12.9-6.4-21.5-19.3-27.9l5.1-6.5q0.4-0.7 0.4-1.4 0-0.8-0.4-1.4-0.3-0.7-1-1.1-0.7-0.4-1.4-0.4h-18.2q-0.7 0-1.4 0.4-0.7 0.4-1 1.1-0.4 0.6-0.4 1.4 0 0.7 0.4 1.4l5.1 6.6c-12.9 6.4-19.3 15-19.3 27.9 0 11.7 10.7 17 25.7 17z"/><path class="a" d="m25.7 41q0.8 0.9 1.9 1.4 1.2 0.5 2.4 0.5c1.2 0 2.5-0.4 3.4-1.2 1-0.8 1.6-1.9 1.7-3.1-0.1-1.3-0.7-2.4-1.7-3.2-0.9-0.8-2.2-1.2-3.4-1.1-1.2 0.1-2.5-0.3-3.4-1.1-1-0.8-1.6-2-1.7-3.2 0.1-1.2 0.7-2.4 1.7-3.2 0.9-0.8 2.2-1.2 3.4-1.1q1.2-0.1 2.3 0.4 1.2 0.4 2 1.3"/></svg>