<svg width="80" height="80" viewBox="0 0 80 80" fill="none" xmlns="http://www.w3.org/2000/svg">
<g opacity="0.1">
<path d="M42.6861 39.429C41.8386 39.7971 40.9244 39.987 40.0004 39.987C39.0764 39.987 38.1623 39.7971 37.3147 39.429L4.74328 24.3433C4.21437 24.0766 3.7699 23.6682 3.45935 23.1638C3.14881 22.6593 2.98437 22.0786 2.98438 21.4862C2.98437 20.8938 3.14881 20.3131 3.45935 19.8086C3.7699 19.3042 4.21437 18.8958 4.74328 18.629L37.3147 3.42904C38.1623 3.06101 39.0764 2.87109 40.0004 2.87109C40.9244 2.87109 41.8386 3.06101 42.6861 3.42904L75.2576 18.5148C75.7865 18.7815 76.231 19.1899 76.5415 19.6943C76.8521 20.1988 77.0165 20.7795 77.0165 21.3719C77.0165 21.9643 76.8521 22.545 76.5415 23.0495C76.231 23.5539 75.7865 23.9623 75.2576 24.229L42.6861 39.429Z" stroke="white" stroke-width="2" stroke-linecap="round" stroke-linejoin="round"/>
<path d="M77.1451 42L42.2879 58.0571C41.5435 58.3967 40.7348 58.5724 39.9165 58.5724C39.0983 58.5724 38.2896 58.3967 37.5451 58.0571L2.85938 42" stroke="white" stroke-width="2" stroke-linecap="round" stroke-linejoin="round"/>
<path d="M77.1451 60.5703L42.2879 76.6275C41.5435 76.967 40.7348 77.1428 39.9165 77.1428C39.0983 77.1428 38.2896 76.967 37.5451 76.6275L2.85938 60.5703" stroke="white" stroke-width="2" stroke-linecap="round" stroke-linejoin="round"/>
</g>
</svg>
