<svg version="1.2" xmlns="http://www.w3.org/2000/svg" viewBox="0 0 40 40" width="40" height="40"><defs><clipPath clipPathUnits="userSpaceOnUse" id="cp1"><path d="m0 0h40v40h-40z"/></clipPath></defs><style>.a{fill:none;stroke:#a93e17;stroke-linecap:round;stroke-linejoin:round;stroke-width:2}</style><filter id="f0"><feFlood flood-color="#caa501" flood-opacity="1" /><feBlend mode="normal" in2="SourceGraphic"/><feComposite in2="SourceAlpha" operator="in" /></filter><g clip-path="url(#cp1)" filter="url(#f0)"><path class="a" d="m35.7 4.3l-9.7 9.7"/><path class="a" d="m4.3 4.3l9.7 9.7"/><path class="a" d="m4.3 35.7l9.7-9.7"/><path class="a" d="m35.7 35.7l-9.7-9.7"/><path class="a" d="m20 38.6c10.3 0 18.6-8.3 18.6-18.6 0-10.3-8.3-18.6-18.6-18.6-10.3 0-18.6 8.3-18.6 18.6 0 10.3 8.3 18.6 18.6 18.6z"/><path class="a" d="m20 28.4c4.7 0 8.4-3.7 8.4-8.4 0-4.7-3.7-8.4-8.4-8.4-4.7 0-8.4 3.7-8.4 8.4 0 4.7 3.7 8.4 8.4 8.4z"/></g></svg>