<svg version="1.2" xmlns="http://www.w3.org/2000/svg" viewBox="0 0 16 17" width="16" height="17"><style>.a{fill:#ffce00}</style><path class="a" d="m14.1 8.2l-1.8-0.5c-0.8-0.3-1.6-0.7-2.2-1.3-0.6-0.6-1-1.4-1.3-2.2l-0.5-1.8q0-0.1-0.1-0.1-0.1-0.1-0.2-0.1-0.1 0-0.2 0.1-0.1 0-0.1 0.1l-0.5 1.8c-0.3 0.8-0.7 1.6-1.3 2.2-0.6 0.6-1.4 1-2.2 1.3l-1.8 0.5q-0.1 0-0.2 0.1 0 0.1 0 0.2 0 0.1 0 0.2 0.1 0.1 0.2 0.1l1.8 0.5c0.8 0.3 1.6 0.7 2.2 1.3 0.6 0.6 1 1.4 1.3 2.2l0.5 1.8q0 0.1 0.1 0.2 0.1 0 0.2 0 0.1 0 0.2 0 0.1-0.1 0.1-0.2l0.5-1.8c0.3-0.8 0.7-1.6 1.3-2.2 0.6-0.6 1.4-1 2.2-1.3l1.8-0.5q0.1 0 0.2-0.1 0-0.1 0-0.2 0-0.1 0-0.2-0.1-0.1-0.2-0.1z"/></svg>