<svg version="1.2" xmlns="http://www.w3.org/2000/svg" viewBox="0 0 40 40" width="40" height="40"><style>.a{fill:#caa501}</style><path class="a" d="m10.8 5c5.4 0 9.2 4.4 9.2 10.9 0 9.5-7.1 16.1-17.4 17.4-0.9 0.1-1.3-1.2-0.4-1.6 3.9-1.7 5.9-3.9 6.1-6.1 0.2-1.7-0.7-3.1-1.8-3.4-2.9-0.7-4.8-4.3-4.8-8 0-5.1 4.1-9.2 9.1-9.2z"/><path class="a" d="m30.8 5c5.4 0 9.2 4.4 9.2 10.9 0 9.5-7.1 16.1-17.4 17.4-0.9 0.1-1.3-1.2-0.4-1.6 3.9-1.7 5.9-3.9 6.1-6.1 0.2-1.7-0.7-3.1-1.8-3.4-2.9-0.7-4.8-4.3-4.8-8 0-5.1 4.1-9.2 9.1-9.2z"/></svg>