<svg version="1.2" xmlns="http://www.w3.org/2000/svg" viewBox="0 0 500 199" width="500" height="199"><style>.a{fill:#fff;stroke:#fff;stroke-miterlimit:10;stroke-width:.2}</style><path class="a" d="m389 0.1v99.1l-1.3 1-1.2 1.1-1.3 1.1-1.1 1.1-1.1 1-1.1 1.2-1.1 1.1-1.1 1.2v-107.9h-111v90.2h-9.1v-90.2h-111.1v90.4h-9.1v-90.4h-111.1v103l-28.3 93.4h24.9l12.5-41.4h3.6l20.7 41.4h30.1l-20.1-41.4h45.5l-12.6 41.4h27.2l12.5-41.3h6v-0.1h8.5 0.7 51.4l-12.1 41.3h27.5l11.7-41.3h12.3l0.3 41.3h23l26.5-41.3h17.3l-9 41.3h27.1l8.8-41.3h15.6l-0.1 2.4 0.1 2.4 0.1 2.3 0.2 2.3 0.1 1.1 0.2 1.1 0.2 1.1 0.2 1.1 0.3 1.1 0.2 1 0.3 1 0.4 1.1 0.3 1 0.4 1 0.4 1 0.5 1 0.4 1 0.5 0.9 0.5 0.9 0.6 0.9 0.5 0.9 0.7 0.8 0.6 0.9 0.7 0.8 0.7 0.8 0.7 0.8 0.8 0.8 0.7 0.7 1.1 0.9 1 0.8 1 0.8 1.1 0.7 1.1 0.8 1.1 0.6 1.2 0.6 1.2 0.6 1.2 0.6 1.2 0.5 1.2 0.5 1.3 0.4 1.2 0.4 1.3 0.4 1.3 0.4 1.2 0.3 2.6 0.6 2.6 0.4 2.5 0.3 2.5 0.4 2.5 0.2 2.4 0.1 2.4 0.1h2.3l3-0.1h3.1l3.1-0.2 3.1-0.1 3.1-0.3 3.2-0.3 3.1-0.3 3.1-0.3 3.2-0.5 3.1-0.4 3.2-0.6 3.2-0.5 3.1-0.5 3.2-0.7 3.2-0.6 3.2-0.7 9.4-37.5h30.8v-155c0 0-111 0-111 0zm-253.7 95.6l-1.5 5.3-14.8 48.5-0.6 1.8h-48.6l-3.7-8 52.3-52.8h-33.6l-40.9 43.5 13.2-43.5h-24.8v-86.5h103c0 0 0 91.7 0 91.7zm-96.7 55.6l0.2-0.6 0.4 0.6zm125.3-14.5h-0.8l-0.7 0.1h-0.8-0.8-1.1-1l-0.9 0.1h-0.8l-6.6-0.1 3-11.2 1.5-5.5 3.4-13h1.1 1.2 1.1 1.1 5.1 3.1l2.9 0.1 1.2 0.1 1.2 0.1 1.2 0.1 1.1 0.2 0.9 0.1 0.9 0.3 0.9 0.3 0.7 0.3 0.6 0.3 0.6 0.4 0.5 0.4 0.5 0.5 0.2 0.5 0.2 0.4 0.2 0.4 0.2 0.6 0.1 0.5 0.1 0.6v0.6 0.7l-0.1 0.8v0.7l-0.2 0.8-0.2 0.9-0.4 1.7-0.6 2-0.6 1.7-0.6 1.6-0.7 1.5-0.8 1.4-0.3 0.7-0.4 0.6-0.4 0.6-0.5 0.6-0.5 0.6-0.4 0.5-0.6 0.5-0.5 0.5-0.6 0.4-0.6 0.5-0.6 0.3-0.7 0.4-0.7 0.4-0.7 0.3-0.7 0.3-0.8 0.3-0.9 0.3-0.9 0.2-0.9 0.2-1 0.2-1 0.2-1.1 0.1-1.1 0.1c0 0-1.2 0.2-1.2 0.2zm91.6-46.5h-25.8l-17.7 61h-27.4l1.3-0.5 1.3-0.6 1.2-0.5 1.2-0.6 1.2-0.5 1.1-0.7 1.1-0.6 1-0.7 1.1-0.8 1-0.7 0.9-0.7 1-0.9 0.9-0.7 0.8-0.9 0.9-0.9 0.8-0.9 0.8-0.9 0.7-1 0.7-0.9 0.7-1.1 0.6-1 0.6-1 0.6-1.1 0.5-1.2 0.5-1.1 0.5-1.2 0.4-1.2 0.4-1.2 0.4-1.3 0.3-1.3 0.3-1.3 0.3-1.3 0.3-2.1 0.3-2 0.2-1.9 0.2-1.7 0.1-1.8-0.1-1.6v-1.7l-0.3-1.5-0.2-1.4-0.3-1.4-0.4-1.3-0.5-1.2-0.6-1.2-0.6-1.2-0.8-1.1-0.8-1.1-0.7-0.7-0.7-0.7-0.7-0.7-0.8-0.5-0.9-0.6-0.8-0.5-0.9-0.5-0.9-0.4-1-0.4-0.9-0.4-1-0.3-1-0.3-1.1-0.2-1-0.3-1.1-0.2-1.1-0.1-2.3-0.3-2.2-0.2-2.4-0.1-2.3-0.1h-4.8-4.7-1.5-2.6-3.3-3.6-3.6-3-2.1-0.8v-86.3h103.1c0 0 0 86.3 0 86.3zm-16.5 61l10.8-38.1 0.4 38.1c0 0-11.2 0-11.2 0zm136.7-59.3l-0.1 21.2-1.3 1.8-1.2 1.9-1.2 1.8-1.1 1.9-1.1 1.9-1.1 1.9-0.9 1.9-0.9 1.9-0.8 1.8-0.7 1.9-0.8 1.8-0.6 1.8-0.6 1.8-0.5 1.7-0.5 1.7-0.4 1.6-0.3 1.1-0.2 1.2-0.3 1.1-0.2 1.1-0.2 1.1-0.2 1.1-0.1 1.1-0.2 1.2h-15.1l12.9-60.8-43.6-0.1-39 60.9h-2.8v-147.3h103.1c0 0 0 88 0 88zm-57.6 59.3h-15.5l23.4-36.6zm117.1 24.9l-2.2 0.4-2.2 0.3-2.2 0.3-2.2 0.3-2.2 0.2-2.1 0.1-2.1 0.2h-2.1-1.4l-1.4-0.1-1.3-0.1-1.3-0.2-1.3-0.2-1.2-0.2-1.2-0.2-1.2-0.3-1.1-0.4-1.1-0.4-1.1-0.4-1-0.5-1-0.6-0.9-0.6-0.9-0.6-0.9-0.6-0.8-0.8-0.7-0.7-0.8-0.8-0.7-0.9-0.6-0.9-0.6-1-0.5-1-0.5-1-0.5-1.1-0.3-1.2-0.3-1.2-0.4-1.3-0.2-1.3-0.1-1.3-0.1-1.4-0.1-1.5h48c0 0-5.2 21-5.2 21zm60.9-24.9h-26l4.3-17h-52.1l-4.2 17h-25.2v-3.5l0.3-1.4 0.3-1.5 0.3-1.6 0.3-1.5 0.5-1.7 0.5-1.8 0.5-1.7 0.6-1.7 0.6-1.6 0.7-1.7 0.7-1.6 0.8-1.6 0.8-1.7 0.9-1.5 0.8-1.5 1.1-1.5 1-1.5 1-1.4 1.1-1.3 1.1-1.3 1.2-1.3 1.3-1.1 1.3-1.2 1.3-1.1 1.4-1 1.4-0.9 1.5-0.8 1.6-0.8 1.5-0.8 1.7-0.6 1.7-0.5 1.7-0.4 1.8-0.4 1.8-0.3 1.9-0.1 2-0.1 1.5 0.1 1.6 0.1 1.5 0.2 1.5 0.3 0.7 0.2 0.7 0.2 0.7 0.2 0.6 0.4 0.6 0.2 0.7 0.4 0.6 0.3 0.5 0.4 0.6 0.5 0.5 0.5 0.5 0.4 0.5 0.6 0.4 0.5 0.3 0.6 0.4 0.7 0.3 0.7 0.2 0.7 0.3 0.8 0.1 0.8 0.2 0.9v0.9 0.9 1l-0.1 1h31.1l0.4-2.1 0.5-2.4 0.2-1.3 0.1-1.5 0.1-1.4v-1.4l-0.1-1.5-0.1-1.6-0.2-0.7-0.1-0.8-0.2-0.8-0.2-0.8-0.3-0.8-0.2-0.8-0.4-0.8-0.3-0.8-0.4-0.8-0.5-0.7-0.5-0.8-0.5-0.8-0.6-0.8-0.7-0.8-0.7-0.8-0.7-0.7-0.8-0.8-0.9-0.6-0.8-0.7-0.9-0.6-1-0.6-0.9-0.5-1-0.6-1.1-0.5-1-0.5-1.1-0.4-1.2-0.5-1.1-0.4-1.2-0.3-1.3-0.3-1.2-0.4-1.3-0.3-1.3-0.2-1.3-0.3-1.4-0.2-1.4-0.2-3-0.3-2.9-0.2-3.1-0.1-3.2-0.1-2.4 0.1h-2.4l-2.6 0.2-2.7 0.2-2.8 0.3-2.9 0.4-2.9 0.4-2.9 0.6-1.5 0.4-1.5 0.3-1.5 0.4-1.5 0.5-1.6 0.4-1.5 0.6-1.5 0.5-1.5 0.6-1.5 0.6-1.6 0.7-1.5 0.6-1.5 0.8-1.5 0.7-1.4 0.9-1.5 0.8-1.5 1v-92.4h103.2c0 0 0 147.2 0 147.2z"/></svg>