<svg version="1.2" xmlns="http://www.w3.org/2000/svg" viewBox="0 0 517 145" width="517" height="145"><style>.a{fill:#321e1e}.b{fill:none;stroke:#321e1e;stroke-miterlimit:10;stroke-width:3.5}</style><filter id="f0"><feFlood flood-color="#ffffff" flood-opacity="1" /><feBlend mode="normal" in2="SourceGraphic"/><feComposite in2="SourceAlpha" operator="in" /></filter><g filter="url(#f0)"><path class="a" d="m97.3 0h-97.3v144.3h97.2v-144.3zm-3.5 3.5v137.3h-90.2v-137.3z"/><path class="b" d="m1.6 95.6h94"/><path class="b" d="m1.6 111.3h94"/><path class="b" d="m1.6 127h94"/><path class="b" d="m95.6 95.6l-47-46.9-47 46.9"/><path class="b" d="m48.6 1.7v47"/><path class="b" d="m1.6 1.7l47 47"/><path class="b" d="m1.6 48.7h47"/><path class="b" d="m95.6 48.7h-47"/><path class="b" d="m95.6 1.7l-47 47"/><path class="b" d="m72.1 95.6l-23.5-23.4-23.5 23.4"/><path class="a" d="m221.5 29.7h-4v4.1h4z"/><path class="a" d="m214.7 29.7h-4.1v4.1h4.1z"/><path class="a" d="m144.6 60.4h-4v4.1h4z"/><path class="a" d="m137.8 60.4h-4.1v4.1h4.1z"/><path class="a" d="m140.9 40.3v7.3c0 4.2-1.6 6-4.9 6h-0.2c-3.5 0-5.6-2.5-5.6-5.9v-7.4h-3.5v20.5c0 2.4-0.9 3.7-3.6 3.7h-5.1v3h6c4.6 0 6.2-2.5 6.2-6.7v-6.7h0.7c0.7 1.2 1 2.6 4.9 2.6 5.7 0 8.7-3.7 8.7-8.8v-7.6z"/><path class="a" d="m243.8 25.7l-0.1 21.8c0 3.6-1.4 5.9-5.6 5.9-4.2 0-5.5-2.3-5.5-5.9v-21.8h-3.5v21.8c0 3.6-0.9 5.9-4.7 5.9h-0.6c-4.9 0-5.8-2.5-5.8-5.9v-7.2h-3.5v7.2c0 3.4-0.9 5.9-5 5.9h-0.7c-3.7 0-4.9-2-4.9-5.5 0-8.3-5.8-11.6-11.5-11.6q-2-0.1-3.9 0.6-2 0.6-3.6 1.9-1.6 1.2-2.7 2.9-1.1 1.8-1.6 3.7h-0.7v-19.5h-3.5v27.5h-7.8v-0.6c0-9-2.6-14.1-9-14.1-5.8 0-9 5-9 9.4 0 4.4 1.8 8.4 10.4 8.4h4.4c-0.1 5.8-2.4 7.8-7.4 7.8h-5.6v3h6.3c6.5 0 9.7-3 9.9-10.8h23.5c5 0 8.1-1.3 9.8-3.1h0.9c0.6 1.6 2.1 3.1 5.8 3.1h1.6c4 0 5.5-1.7 6.2-3.3h1.1c0.3 1.6 2.1 3.3 5.8 3.3h0.9c4.2 0 6.5-1.7 6.8-3.3h1.1c0.7 1.6 2.1 3.3 6 3.3 7.1 0 9.2-4 9.2-9.5v-21.3zm-83.6 27.7c-4.4 0-6-1.8-6-5.3 0-3.5 2.1-6 5.5-6 4.2 0 5.8 3.9 5.8 10.9v0.4zm31.5 0h-11.8c0.2-6.4 5-13.6 12.4-13.6 3.8 0 8.1 1.9 8.1 7.9 0 3.2-1.4 5.7-8.6 5.7z"/><path class="a" d="m274.9 31.5h-4v4.1h4z"/><path class="a" d="m268 31.5h-4v4.1h4z"/><path class="a" d="m282.7 53.4h7.9c3.4 0 5.3-1.4 5.3-4.9 0-3.2-3-6.4-8.5-6.4h-3v-3.2h3c7.1 0 12 4.3 12 10 0 4.3-3.3 7.6-8.8 7.6h-7.9z"/><path class="a" d="m269.3 38.8c-5.9 0-9.4 3.8-9.4 9.1 0 1.2 0.2 2.5 0.7 3.6 0.4 1.1 1.1 2.2 2 3 0.9 0.9 1.9 1.6 3.1 2 1.1 0.4 2.3 0.6 3.6 0.6 5.6 0 9-4.2 9-9.2 0-5.1-3.4-9.1-9-9.1zm0 15.1q-1.2 0-2.3-0.4-1.1-0.5-1.9-1.3-0.9-0.9-1.3-2-0.4-1.1-0.4-2.3c0-3.3 2.2-6 5.9-6 3.5 0 5.4 2.7 5.4 6 0 3.2-1.9 6-5.4 6z"/><path class="a" d="m386.7 25.7h-3.5v30.9h3.5z"/><path class="a" d="m372.3 47.2c0 4.3-1.3 6.2-4.5 6.2h-2.1c-3.6 0-4.5-2.5-4.5-6v-7.2h-3.6v7.2c0 3.5-0.8 6-4.9 6-4.2 0-5.1-2.5-5.1-6v-5h-3.5v5c0 3.5-0.9 6-5 6-4 0-4.9-2.5-4.9-6v-5h-3.5v5c0 3.5-0.9 6-4.6 6h-3.9v-0.4c0-9-2.6-14.3-9-14.3-5.8 0-9 5-9 9.4 0 4.4 1.8 8.4 10.4 8.4h4.4c-0.2 5.8-2.5 7.8-7.4 7.8h-5.7v3h6.4c6.5 0 9.7-3 9.9-10.8h4.9q0.9 0.1 1.7-0.1 0.9-0.2 1.6-0.7 0.7-0.4 1.3-1.1 0.5-0.6 0.9-1.4h1c0.6 1.4 2.2 3.3 5.7 3.3h0.9c3.7 0 5.3-1.9 5.8-3.3h1q0.4 0.8 0.9 1.4 0.6 0.7 1.3 1.1 0.8 0.5 1.6 0.7 0.8 0.2 1.7 0.1h1.2c3.6 0 5.3-1.9 5.7-3.3h1q0.4 0.8 0.9 1.4 0.6 0.6 1.3 1.1 0.7 0.4 1.5 0.7 0.8 0.2 1.7 0.2h1.9c5.5 0 8.1-3.4 8.1-8.9v-22h-3.5zm-58.5 6.2c-4.4 0-6-1.7-6-5.3 0-3.5 2.1-6 5.4-6 4.3 0 5.9 4.1 5.9 11.1v0.2z"/><path class="a" d="m129.8 110.2c7.4 0 11.3-4.3 11.3-8.8 0-5-3-7.4-7.4-8.5q-0.7-0.1-1.4-0.2-0.7-0.1-1.4-0.2-0.6-0.1-1.3-0.3-0.7-0.1-1.4-0.3c-2.6-0.5-5.3-1.4-5.3-4 0-3.3 3.2-4.9 6.7-4.9 4.4 0 6.4 1.6 7 4.4h3.7c-0.5-4.8-4.6-7.9-10.5-7.9-6.9 0-10.4 3.5-10.4 8.3 0 4.4 2.8 6.7 7 7.6 1.6 0.1 4.4 0.7 6 1 2.7 0.5 4.8 1.8 4.8 5 0 3.3-3.2 5.4-7 5.4-4.1 0-7.6-1.2-8.5-5.4h-3.7c0.5 5.2 4.9 8.8 11.8 8.8z"/><path class="a" d="m154.8 88.3c-6.5 0-10.2 4.6-10.2 10.8 0 6.3 3.7 11 10.2 11 6.5 0 10.2-4.7 10.2-11 0-6.2-3.7-10.8-10.2-10.8zm0 18.7c-4.4 0-6.5-3.5-6.5-7.9 0-4 2.1-7.8 6.5-7.8 4.8 0 6.9 3.7 6.9 7.8 0 4.4-2.1 7.9-6.9 7.9z"/><path class="a" d="m177.3 110.2q0.9 0 1.8-0.2 0.9-0.1 1.7-0.5 0.8-0.3 1.5-0.8 0.8-0.5 1.4-1.2h0.9v2.1h3.3v-20.8h-3.5v11.3c0 3.7-2.5 6.9-6.2 6.9-3.5 0-5.1-2-5.1-5.8v-12.4h-3.5v13c0 5.2 2.6 8.4 7.7 8.4z"/><path class="a" d="m209 79.5v11.6h-0.9c-1.2-1.7-3-2.8-6.3-2.8-6 0-9.2 4.6-9.2 10.8 0 6.3 3.2 11 9.2 11q0.9 0.1 1.8 0 0.9-0.2 1.8-0.5 0.8-0.4 1.5-0.9 0.8-0.5 1.4-1.2h0.7v2.1h3.5v-30.1zm-6.5 27.5c-4 0-6.3-3.2-6.3-7.9 0-4.6 2.3-7.8 6.3-7.8 4.8 0 6.6 3.7 6.6 7.8-0.1 4.4-1.8 7.9-6.6 7.9z"/><path class="a" d="m226.6 88.3c-4.7 0-8.1 2.1-8.2 6.2h3.5q0-3.2 4.7-3.2c3.7 0 5.1 1.9 5.1 4.2v0.9h-6.8c-5.8 0-8 3.7-8 7 0 3.3 2.7 6.7 7.6 6.7q0.9 0 1.7-0.1 0.9-0.2 1.7-0.5 0.8-0.4 1.5-0.9 0.7-0.5 1.3-1.1h1v2.1h3.2v-14.1c0-4.9-3.2-7.2-8.3-7.2zm5.1 12.9c0 3.3-3.1 5.8-6.5 5.8-3 0-4.7-1.4-4.7-3.7 0-2.7 1.6-4 4.9-4h6.3z"/><path class="a" d="m240.5 109.6h3.6v-11.4c0-3.7 2.6-6.9 6.1-6.9 3.6 0 5.3 2.1 5.3 5.8v12.5h3.5v-13.2c0-5.1-2.6-8.1-7.7-8.1-3 0-5.1 1.1-6.2 2.8h-1.1v-11.6h-3.5z"/><path class="a" d="m284.4 80h-11.1v29.4h11.1c9.1 0 13.7-6 13.7-14.8 0-8.8-4.6-14.6-13.7-14.6zm0 26.1h-7.3v-22.9h7.3c7.2 0 9.6 5.2 9.6 11.4 0 6-2.4 11.4-9.6 11.4z"/><path class="a" d="m321 97.8c0-5.1-3.2-9.9-9.3-9.9-6.4 0-9.9 4.4-9.9 10.9 0 6.4 3.5 11 10.2 11 5 0 7.9-2.5 8.7-6.2h-3.4q-0.3 0.8-0.8 1.4-0.6 0.7-1.3 1.1-0.7 0.5-1.5 0.7-0.8 0.2-1.7 0.1c-4.6 0-6.8-3-6.8-7.9h15.8zm-15.7-1.8q0.2-1 0.8-2 0.6-0.9 1.4-1.6 0.9-0.7 2-1 1-0.4 2.1-0.3c3.6 0 5.7 2.3 5.7 4.9z"/><path class="a" d="m329.6 109.4h6.5l7-20.8h-3.5l-5.8 17.5h-1.7l-5.7-17.5h-3.9z"/><path class="a" d="m363.9 97.8c0-5.1-3-9.9-9.1-9.9-6.5 0-10.2 4.4-10.2 10.9 0 6.4 3.7 11 10.2 11 5.1 0 8.3-2.5 8.8-6.2h-3.6c-0.5 2.1-2.3 3.3-5.3 3.3-4.4 0-6.5-3-6.5-7.9h15.7zm-15.7-1.8q0.2-1 0.8-2 0.6-0.9 1.5-1.6 0.8-0.7 1.9-1 1.1-0.4 2.2-0.3c3.5 0 5.6 2.3 5.8 4.9z"/><path class="a" d="m372.2 79.3h-3.5v30.1h3.5z"/><path class="a" d="m386.4 87.9c-6.5 0-10.4 4.9-10.4 11.1 0 6.2 3.9 10.7 10.4 10.7 6.5 0 10-4.5 10-10.7 0-6.2-3.4-11.1-10-11.1zm0 19c-4.7 0-6.8-3.9-6.8-7.9 0-4.2 2.1-7.9 6.8-7.9 4.4 0 6.6 3.7 6.6 7.9 0 4.1-2.2 7.9-6.6 7.9z"/><path class="a" d="m411.4 87.9q-0.9 0-1.8 0.1-0.9 0.2-1.8 0.5-0.8 0.4-1.6 1-0.7 0.5-1.3 1.2h-0.9v-2.1h-3.3v29.1h3.3v-10.6h0.9c1.2 1.6 3.2 2.6 6.5 2.6 5.6 0 9.2-4.5 9.2-10.7 0-6.1-3.6-11.1-9.2-11.1zm-0.9 19c-4.6 0-6.5-3.9-6.5-7.9 0-4.2 1.9-7.9 6.5-7.9 4.3 0 6.5 3.1 6.5 7.9 0 4.6-2.3 7.9-6.5 7.9z"/><path class="a" d="m425.3 109.4h3.3v-11.6c0-3.6 1.6-6.7 5.2-6.7 2.6 0 4 1.7 4 5.3v13h3.5v-12c0-3.7 1.8-6.4 5.1-6.4 2.7 0 3.9 1.8 3.9 5.3v13h3.5v-13.5c0-4.7-1.9-7.9-6.8-7.9q-0.9 0-1.7 0.2-0.8 0.1-1.6 0.5-0.7 0.4-1.4 0.9-0.6 0.6-1.2 1.2h-0.8q-0.5-0.7-1-1.2-0.6-0.6-1.4-0.9-0.7-0.4-1.5-0.6-0.8-0.1-1.6-0.1c-2.6 0-4.4 1-5.3 2.7h-1v-2h-3.2z"/><path class="a" d="m482.2 109.4h3.5v-11.3c0-3.7 2.6-7 6.3-7 3.4 0 5.1 2 5.1 5.8v12.5h3.6v-13c0-5.3-2.7-8.4-7.8-8.4q-0.9 0-1.8 0.1-0.9 0.2-1.8 0.6-0.8 0.3-1.5 0.9-0.8 0.5-1.4 1.2h-0.7v-2.2h-3.5z"/><path class="a" d="m514.6 109.4h1.4v-3.4h-1.4c-3 0-3.9-0.8-3.9-3v-11.4h5.3v-3h-5.3v-6.3h-3.5v6.3h-3.3v3h3.3v12c0 4.4 2.6 5.8 7.4 5.8z"/><path class="a" d="m477.6 97.8c0-5.1-3-9.9-9.2-9.9-6.5 0-10.2 4.4-10.2 10.9 0 6.4 3.7 11 10.2 11 5.1 0 8.3-2.5 8.8-6.2h-3.5c-0.5 2.1-2.3 3.3-5.3 3.3-4.4 0-6.5-3-6.5-7.9h15.7zm-15.7-1.8q0.2-1 0.8-2 0.6-0.9 1.5-1.6 0.8-0.7 1.9-1 1.1-0.4 2.2-0.3c3.5 0 5.6 2.3 5.8 4.9z"/></g></svg>